<?xml version="1.0" encoding="UTF-8" standalone="no"?>
<!DOCTYPE svg PUBLIC "-//W3C//DTD SVG 1.1//EN"
 "http://www.w3.org/Graphics/SVG/1.1/DTD/svg11.dtd">
<!-- Generated by graphviz version 14.1.2 (0)
 -->
<!-- Title: Graphical Class Hierarchy Pages: 1 -->
<svg width="591pt" height="68pt"
 viewBox="0.00 0.00 591.00 68.00" xmlns="http://www.w3.org/2000/svg" xmlns:xlink="http://www.w3.org/1999/xlink">
<g id="graph0" class="graph" transform="scale(1 1) rotate(0) translate(4 63.75)">
<title>Graphical Class Hierarchy</title>
<!-- Node0 -->
<g id="Node000000" class="node">
<title>Node0</title>
<g id="a_Node000000"><a xlink:href="d8/dfb/classokapi_1_1ControllerInput.html" target="_top" xlink:title=" ">
<polygon fill="white" stroke="#666666" points="121,-46.12 0,-46.12 0,-12.62 121,-12.62 121,-46.12"/>
<text xml:space="preserve" text-anchor="start" x="8" y="-32.62" font-family="Helvetica,sans-Serif" font-size="10.00">okapi::ControllerInput</text>
<text xml:space="preserve" text-anchor="middle" x="60.5" y="-19.88" font-family="Helvetica,sans-Serif" font-size="10.00">&lt; bool &gt;</text>
</a>
</g>
</g>
<!-- Node1 -->
<g id="Node000001" class="node">
<title>Node1</title>
<g id="a_Node000001"><a xlink:href="db/df3/classokapi_1_1AbstractButton.html" target="_top" xlink:title=" ">
<polygon fill="white" stroke="#666666" points="278,-39.75 157,-39.75 157,-19 278,-19 278,-39.75"/>
<text xml:space="preserve" text-anchor="middle" x="217.5" y="-26.25" font-family="Helvetica,sans-Serif" font-size="10.00">okapi::AbstractButton</text>
</a>
</g>
</g>
<!-- Node0&#45;&gt;Node1 -->
<g id="edge33_Node000000_Node000001" class="edge">
<title>Node0&#45;&gt;Node1</title>
<g id="a_edge33_Node000000_Node000001"><a xlink:title=" ">
<path fill="none" stroke="#63b8ff" d="M132.69,-29.38C140.73,-29.38 148.86,-29.38 156.73,-29.38"/>
<polygon fill="#63b8ff" stroke="#63b8ff" points="132.94,-25.88 122.94,-29.38 132.94,-32.88 132.94,-25.88"/>
</a>
</g>
</g>
<!-- Node2 -->
<g id="Node000002" class="node">
<title>Node2</title>
<g id="a_Node000002"><a xlink:href="d4/dce/classokapi_1_1ButtonBase.html" target="_top" xlink:title=" ">
<polygon fill="white" stroke="#666666" points="418.5,-39.75 314,-39.75 314,-19 418.5,-19 418.5,-39.75"/>
<text xml:space="preserve" text-anchor="middle" x="366.25" y="-26.25" font-family="Helvetica,sans-Serif" font-size="10.00">okapi::ButtonBase</text>
</a>
</g>
</g>
<!-- Node1&#45;&gt;Node2 -->
<g id="edge34_Node000001_Node000002" class="edge">
<title>Node1&#45;&gt;Node2</title>
<g id="a_edge34_Node000001_Node000002"><a xlink:title=" ">
<path fill="none" stroke="#63b8ff" d="M289.58,-29.38C297.69,-29.38 305.83,-29.38 313.61,-29.38"/>
<polygon fill="#63b8ff" stroke="#63b8ff" points="289.7,-25.88 279.7,-29.38 289.7,-32.88 289.7,-25.88"/>
</a>
</g>
</g>
<!-- Node3 -->
<g id="Node000003" class="node">
<title>Node3</title>
<g id="a_Node000003"><a xlink:href="d8/d46/classokapi_1_1ADIButton.html" target="_top" xlink:title=" ">
<polygon fill="white" stroke="#666666" points="567.62,-59.75 469.88,-59.75 469.88,-39 567.62,-39 567.62,-59.75"/>
<text xml:space="preserve" text-anchor="middle" x="518.75" y="-46.25" font-family="Helvetica,sans-Serif" font-size="10.00">okapi::ADIButton</text>
</a>
</g>
</g>
<!-- Node2&#45;&gt;Node3 -->
<g id="edge35_Node000002_Node000003" class="edge">
<title>Node2&#45;&gt;Node3</title>
<g id="a_edge35_Node000002_Node000003"><a xlink:title=" ">
<path fill="none" stroke="#63b8ff" d="M430.01,-37.72C443.17,-39.46 456.86,-41.28 469.4,-42.95"/>
<polygon fill="#63b8ff" stroke="#63b8ff" points="430.5,-34.25 420.12,-36.4 429.57,-41.19 430.5,-34.25"/>
</a>
</g>
</g>
<!-- Node4 -->
<g id="Node000004" class="node">
<title>Node4</title>
<g id="a_Node000004"><a xlink:href="d0/d02/classokapi_1_1ControllerButton.html" target="_top" xlink:title=" ">
<polygon fill="white" stroke="#666666" points="583,-20.75 454.5,-20.75 454.5,0 583,0 583,-20.75"/>
<text xml:space="preserve" text-anchor="middle" x="518.75" y="-7.25" font-family="Helvetica,sans-Serif" font-size="10.00">okapi::ControllerButton</text>
</a>
</g>
</g>
<!-- Node2&#45;&gt;Node4 -->
<g id="edge36_Node000002_Node000004" class="edge">
<title>Node2&#45;&gt;Node4</title>
<g id="a_edge36_Node000002_Node000004"><a xlink:title=" ">
<path fill="none" stroke="#63b8ff" d="M429.8,-21.48C437.83,-20.47 446.05,-19.43 454.1,-18.41"/>
<polygon fill="#63b8ff" stroke="#63b8ff" points="429.61,-17.97 420.12,-22.7 430.48,-24.92 429.61,-17.97"/>
</a>
</g>
</g>
</g>
</svg>
