<?xml version="1.0" encoding="UTF-8" standalone="no"?>
<!DOCTYPE svg PUBLIC "-//W3C//DTD SVG 1.1//EN"
 "http://www.w3.org/Graphics/SVG/1.1/DTD/svg11.dtd">
<!-- Generated by graphviz version 14.1.2 (0)
 -->
<!-- Title: include/pros/vision.hpp Pages: 1 -->
<svg width="767pt" height="313pt"
 viewBox="0.00 0.00 767.00 313.00" xmlns="http://www.w3.org/2000/svg" xmlns:xlink="http://www.w3.org/1999/xlink">
<g id="graph0" class="graph" transform="scale(1 1) rotate(0) translate(4 308.5)">
<title>include/pros/vision.hpp</title>
<!-- Node1 -->
<g id="Node000001" class="node">
<title>Node1</title>
<g id="a_Node000001"><a xlink:title=" ">
<polygon fill="#999999" stroke="#666666" points="452.33,-304.5 323.83,-304.5 323.83,-283.75 452.33,-283.75 452.33,-304.5"/>
<text xml:space="preserve" text-anchor="middle" x="388.08" y="-291" font-family="Helvetica,sans-Serif" font-size="10.00">include/pros/vision.hpp</text>
</a>
</g>
</g>
<!-- Node2 -->
<g id="Node000002" class="node">
<title>Node2</title>
<g id="a_Node000002"><a xlink:title=" ">
<polygon fill="#e0e0e0" stroke="#999999" points="606.58,-134.25 557.58,-134.25 557.58,-113.5 606.58,-113.5 606.58,-134.25"/>
<text xml:space="preserve" text-anchor="middle" x="582.08" y="-120.75" font-family="Helvetica,sans-Serif" font-size="10.00">cstdint</text>
</a>
</g>
</g>
<!-- Node1&#45;&gt;Node2 -->
<g id="edge1_Node000001_Node000002" class="edge">
<title>Node1&#45;&gt;Node2</title>
<g id="a_edge1_Node000001_Node000002"><a xlink:title=" ">
<path fill="none" stroke="#63b8ff" d="M400.23,-283.55C411.66,-274.47 429.2,-260.39 444.08,-247.75 487.38,-210.96 536.82,-166.26 563.18,-142.21"/>
<polygon fill="#63b8ff" stroke="#63b8ff" points="565.36,-144.96 570.37,-135.63 560.63,-139.79 565.36,-144.96"/>
</a>
</g>
</g>
<!-- Node3 -->
<g id="Node000003" class="node">
<title>Node3</title>
<g id="a_Node000003"><a xlink:href="../../d5/d08/device_8hpp.html" target="_top" xlink:title=" ">
<polygon fill="white" stroke="#666666" points="434.7,-247.75 341.45,-247.75 341.45,-227 434.7,-227 434.7,-247.75"/>
<text xml:space="preserve" text-anchor="middle" x="388.08" y="-234.25" font-family="Helvetica,sans-Serif" font-size="10.00">pros/device.hpp</text>
</a>
</g>
</g>
<!-- Node1&#45;&gt;Node3 -->
<g id="edge2_Node000001_Node000003" class="edge">
<title>Node1&#45;&gt;Node3</title>
<g id="a_edge2_Node000001_Node000003"><a xlink:title=" ">
<path fill="none" stroke="#63b8ff" d="M388.08,-283.34C388.08,-276.72 388.08,-267.72 388.08,-259.52"/>
<polygon fill="#63b8ff" stroke="#63b8ff" points="391.58,-259.59 388.08,-249.59 384.58,-259.59 391.58,-259.59"/>
</a>
</g>
</g>
<!-- Node19 -->
<g id="Node000019" class="node">
<title>Node19</title>
<g id="a_Node000019"><a xlink:href="../../d3/d72/vision_8h.html" target="_top" xlink:title=" ">
<polygon fill="white" stroke="#666666" points="201.2,-247.75 122.95,-247.75 122.95,-227 201.2,-227 201.2,-247.75"/>
<text xml:space="preserve" text-anchor="middle" x="162.08" y="-234.25" font-family="Helvetica,sans-Serif" font-size="10.00">pros/vision.h</text>
</a>
</g>
</g>
<!-- Node1&#45;&gt;Node19 -->
<g id="edge21_Node000001_Node000019" class="edge">
<title>Node1&#45;&gt;Node19</title>
<g id="a_edge21_Node000001_Node000019"><a xlink:title=" ">
<path fill="none" stroke="#63b8ff" d="M347.41,-283.27C309.66,-274.13 253.32,-260.48 212.68,-250.63"/>
<polygon fill="#63b8ff" stroke="#63b8ff" points="213.67,-247.27 203.13,-248.32 212.03,-254.08 213.67,-247.27"/>
</a>
</g>
</g>
<!-- Node4 -->
<g id="Node000004" class="node">
<title>Node4</title>
<g id="a_Node000004"><a xlink:href="../../d0/d0e/misc_8hpp.html" target="_top" xlink:title=" ">
<polygon fill="white" stroke="#666666" points="663.2,-191 578.95,-191 578.95,-170.25 663.2,-170.25 663.2,-191"/>
<text xml:space="preserve" text-anchor="middle" x="621.08" y="-177.5" font-family="Helvetica,sans-Serif" font-size="10.00">pros/misc.hpp</text>
</a>
</g>
</g>
<!-- Node3&#45;&gt;Node4 -->
<g id="edge3_Node000003_Node000004" class="edge">
<title>Node3&#45;&gt;Node4</title>
<g id="a_edge3_Node000003_Node000004"><a xlink:title=" ">
<path fill="none" stroke="#63b8ff" d="M430,-226.52C468.65,-217.44 526.18,-203.92 568.01,-194.09"/>
<polygon fill="#63b8ff" stroke="#63b8ff" points="568.69,-197.53 577.62,-191.84 567.09,-190.72 568.69,-197.53"/>
</a>
</g>
</g>
<!-- Node10 -->
<g id="Node000010" class="node">
<title>Node10</title>
<g id="a_Node000010"><a xlink:href="../../d1/d13/rtos_8hpp.html" target="_top" xlink:title=" ">
<polygon fill="white" stroke="#666666" points="379.95,-191 300.2,-191 300.2,-170.25 379.95,-170.25 379.95,-191"/>
<text xml:space="preserve" text-anchor="middle" x="340.08" y="-177.5" font-family="Helvetica,sans-Serif" font-size="10.00">pros/rtos.hpp</text>
</a>
</g>
</g>
<!-- Node3&#45;&gt;Node10 -->
<g id="edge10_Node000003_Node000010" class="edge">
<title>Node3&#45;&gt;Node10</title>
<g id="a_edge10_Node000003_Node000010"><a xlink:title=" ">
<path fill="none" stroke="#63b8ff" d="M379.5,-226.59C373.01,-219.19 363.92,-208.82 356.11,-199.91"/>
<polygon fill="#63b8ff" stroke="#63b8ff" points="358.81,-197.68 349.58,-192.47 353.54,-202.29 358.81,-197.68"/>
</a>
</g>
</g>
<!-- Node4&#45;&gt;Node2 -->
<g id="edge4_Node000004_Node000002" class="edge">
<title>Node4&#45;&gt;Node2</title>
<g id="a_edge4_Node000004_Node000002"><a xlink:title=" ">
<path fill="none" stroke="#63b8ff" d="M614.11,-169.84C608.95,-162.6 601.76,-152.51 595.5,-143.72"/>
<polygon fill="#63b8ff" stroke="#63b8ff" points="598.52,-141.93 589.87,-135.81 592.82,-145.99 598.52,-141.93"/>
</a>
</g>
</g>
<!-- Node5 -->
<g id="Node000005" class="node">
<title>Node5</title>
<g id="a_Node000005"><a xlink:title=" ">
<polygon fill="#e0e0e0" stroke="#999999" points="758.95,-134.25 715.2,-134.25 715.2,-113.5 758.95,-113.5 758.95,-134.25"/>
<text xml:space="preserve" text-anchor="middle" x="737.08" y="-120.75" font-family="Helvetica,sans-Serif" font-size="10.00">string</text>
</a>
</g>
</g>
<!-- Node4&#45;&gt;Node5 -->
<g id="edge5_Node000004_Node000005" class="edge">
<title>Node4&#45;&gt;Node5</title>
<g id="a_edge5_Node000004_Node000005"><a xlink:title=" ">
<path fill="none" stroke="#63b8ff" d="M641.82,-169.84C659.71,-161.39 685.82,-149.07 706.18,-139.46"/>
<polygon fill="#63b8ff" stroke="#63b8ff" points="707.6,-142.66 715.15,-135.22 704.61,-136.33 707.6,-142.66"/>
</a>
</g>
</g>
<!-- Node6 -->
<g id="Node000006" class="node">
<title>Node6</title>
<g id="a_Node000006"><a xlink:href="../../d4/d08/misc_8h.html" target="_top" xlink:title=" ">
<polygon fill="white" stroke="#666666" points="697.2,-134.25 624.95,-134.25 624.95,-113.5 697.2,-113.5 697.2,-134.25"/>
<text xml:space="preserve" text-anchor="middle" x="661.08" y="-120.75" font-family="Helvetica,sans-Serif" font-size="10.00">pros/misc.h</text>
</a>
</g>
</g>
<!-- Node4&#45;&gt;Node6 -->
<g id="edge6_Node000004_Node000006" class="edge">
<title>Node4&#45;&gt;Node6</title>
<g id="a_edge6_Node000004_Node000006"><a xlink:title=" ">
<path fill="none" stroke="#63b8ff" d="M628.23,-169.84C633.52,-162.6 640.89,-152.51 647.31,-143.72"/>
<polygon fill="#63b8ff" stroke="#63b8ff" points="650.02,-145.94 653.1,-135.8 644.37,-141.81 650.02,-145.94"/>
</a>
</g>
</g>
<!-- Node7 -->
<g id="Node000007" class="node">
<title>Node7</title>
<g id="a_Node000007"><a xlink:href="../../df/dd8/stdint_8h.html" target="_top" xlink:title=" ">
<polygon fill="white" stroke="#666666" points="569.45,-77.5 516.7,-77.5 516.7,-56.75 569.45,-56.75 569.45,-77.5"/>
<text xml:space="preserve" text-anchor="middle" x="543.08" y="-64" font-family="Helvetica,sans-Serif" font-size="10.00">stdint.h</text>
</a>
</g>
</g>
<!-- Node6&#45;&gt;Node7 -->
<g id="edge7_Node000006_Node000007" class="edge">
<title>Node6&#45;&gt;Node7</title>
<g id="a_edge7_Node000006_Node000007"><a xlink:title=" ">
<path fill="none" stroke="#63b8ff" d="M639.98,-113.09C621.69,-104.6 594.97,-92.2 574.22,-82.58"/>
<polygon fill="#63b8ff" stroke="#63b8ff" points="575.91,-79.5 565.36,-78.47 572.96,-85.85 575.91,-79.5"/>
</a>
</g>
</g>
<!-- Node8 -->
<g id="Node000008" class="node">
<title>Node8</title>
<g id="a_Node000008"><a xlink:title=" ">
<polygon fill="#e0e0e0" stroke="#999999" points="533.45,-20.75 480.7,-20.75 480.7,0 533.45,0 533.45,-20.75"/>
<text xml:space="preserve" text-anchor="middle" x="507.08" y="-7.25" font-family="Helvetica,sans-Serif" font-size="10.00">limits.h</text>
</a>
</g>
</g>
<!-- Node7&#45;&gt;Node8 -->
<g id="edge8_Node000007_Node000008" class="edge">
<title>Node7&#45;&gt;Node8</title>
<g id="a_edge8_Node000007_Node000008"><a xlink:title=" ">
<path fill="none" stroke="#63b8ff" d="M536.64,-56.34C531.93,-49.17 525.39,-39.23 519.66,-30.51"/>
<polygon fill="#63b8ff" stroke="#63b8ff" points="522.71,-28.78 514.29,-22.34 516.86,-32.62 522.71,-28.78"/>
</a>
</g>
</g>
<!-- Node9 -->
<g id="Node000009" class="node">
<title>Node9</title>
<g id="a_Node000009"><a xlink:title=" ">
<polygon fill="#e0e0e0" stroke="#999999" points="604.83,-20.75 551.33,-20.75 551.33,0 604.83,0 604.83,-20.75"/>
<text xml:space="preserve" text-anchor="middle" x="578.08" y="-7.25" font-family="Helvetica,sans-Serif" font-size="10.00">wchar.h</text>
</a>
</g>
</g>
<!-- Node7&#45;&gt;Node9 -->
<g id="edge9_Node000007_Node000009" class="edge">
<title>Node7&#45;&gt;Node9</title>
<g id="a_edge9_Node000007_Node000009"><a xlink:title=" ">
<path fill="none" stroke="#63b8ff" d="M549.34,-56.34C553.91,-49.17 560.27,-39.23 565.85,-30.51"/>
<polygon fill="#63b8ff" stroke="#63b8ff" points="568.62,-32.66 571.06,-22.35 562.73,-28.89 568.62,-32.66"/>
</a>
</g>
</g>
<!-- Node10&#45;&gt;Node2 -->
<g id="edge15_Node000010_Node000002" class="edge">
<title>Node10&#45;&gt;Node2</title>
<g id="a_edge15_Node000010_Node000002"><a xlink:title=" ">
<path fill="none" stroke="#63b8ff" d="M380.32,-171.67C420.22,-163.61 483.35,-150.4 546.33,-134.83"/>
<polygon fill="#63b8ff" stroke="#63b8ff" points="546.93,-138.29 555.79,-132.47 545.24,-131.5 546.93,-138.29"/>
</a>
</g>
</g>
<!-- Node11 -->
<g id="Node000011" class="node">
<title>Node11</title>
<g id="a_Node000011"><a xlink:href="../../db/d0c/rtos_8h.html" target="_top" xlink:title=" ">
<polygon fill="white" stroke="#666666" points="539.95,-134.25 472.2,-134.25 472.2,-113.5 539.95,-113.5 539.95,-134.25"/>
<text xml:space="preserve" text-anchor="middle" x="506.08" y="-120.75" font-family="Helvetica,sans-Serif" font-size="10.00">pros/rtos.h</text>
</a>
</g>
</g>
<!-- Node10&#45;&gt;Node11 -->
<g id="edge11_Node000010_Node000011" class="edge">
<title>Node10&#45;&gt;Node11</title>
<g id="a_edge11_Node000010_Node000011"><a xlink:title=" ">
<path fill="none" stroke="#63b8ff" d="M369.76,-169.84C396.47,-161.03 435.95,-148 465.56,-138.24"/>
<polygon fill="#63b8ff" stroke="#63b8ff" points="466.54,-141.6 474.94,-135.14 464.35,-134.95 466.54,-141.6"/>
</a>
</g>
</g>
<!-- Node13 -->
<g id="Node000013" class="node">
<title>Node13</title>
<g id="a_Node000013"><a xlink:title=" ">
<polygon fill="#e0e0e0" stroke="#999999" points="68.58,-134.25 19.58,-134.25 19.58,-113.5 68.58,-113.5 68.58,-134.25"/>
<text xml:space="preserve" text-anchor="middle" x="44.08" y="-120.75" font-family="Helvetica,sans-Serif" font-size="10.00">chrono</text>
</a>
</g>
</g>
<!-- Node10&#45;&gt;Node13 -->
<g id="edge14_Node000010_Node000013" class="edge">
<title>Node10&#45;&gt;Node13</title>
<g id="a_edge14_Node000010_Node000013"><a xlink:title=" ">
<path fill="none" stroke="#63b8ff" d="M299.89,-173.91C250.43,-166.61 163.69,-152.91 79.89,-134.47"/>
<polygon fill="#63b8ff" stroke="#63b8ff" points="80.89,-131.11 70.37,-132.35 79.37,-137.94 80.89,-131.11"/>
</a>
</g>
</g>
<!-- Node14 -->
<g id="Node000014" class="node">
<title>Node14</title>
<g id="a_Node000014"><a xlink:title=" ">
<polygon fill="#e0e0e0" stroke="#999999" points="135.2,-134.25 86.95,-134.25 86.95,-113.5 135.2,-113.5 135.2,-134.25"/>
<text xml:space="preserve" text-anchor="middle" x="111.08" y="-120.75" font-family="Helvetica,sans-Serif" font-size="10.00">cstdlib</text>
</a>
</g>
</g>
<!-- Node10&#45;&gt;Node14 -->
<g id="edge16_Node000010_Node000014" class="edge">
<title>Node10&#45;&gt;Node14</title>
<g id="a_edge16_Node000010_Node000014"><a xlink:title=" ">
<path fill="none" stroke="#63b8ff" d="M300,-170.8C262.82,-162.5 205.67,-149.46 146.61,-134.56"/>
<polygon fill="#63b8ff" stroke="#63b8ff" points="147.58,-131.19 137.03,-132.13 145.86,-137.98 147.58,-131.19"/>
</a>
</g>
</g>
<!-- Node15 -->
<g id="Node000015" class="node">
<title>Node15</title>
<g id="a_Node000015"><a xlink:title=" ">
<polygon fill="#e0e0e0" stroke="#999999" points="218.45,-134.25 153.7,-134.25 153.7,-113.5 218.45,-113.5 218.45,-134.25"/>
<text xml:space="preserve" text-anchor="middle" x="186.08" y="-120.75" font-family="Helvetica,sans-Serif" font-size="10.00">functional</text>
</a>
</g>
</g>
<!-- Node10&#45;&gt;Node15 -->
<g id="edge17_Node000010_Node000015" class="edge">
<title>Node10&#45;&gt;Node15</title>
<g id="a_edge17_Node000010_Node000015"><a xlink:title=" ">
<path fill="none" stroke="#63b8ff" d="M312.55,-169.84C287.99,-161.11 251.78,-148.23 224.4,-138.5"/>
<polygon fill="#63b8ff" stroke="#63b8ff" points="225.65,-135.23 215.06,-135.18 223.31,-141.83 225.65,-135.23"/>
</a>
</g>
</g>
<!-- Node16 -->
<g id="Node000016" class="node">
<title>Node16</title>
<g id="a_Node000016"><a xlink:title=" ">
<polygon fill="#e0e0e0" stroke="#999999" points="293.7,-134.25 236.45,-134.25 236.45,-113.5 293.7,-113.5 293.7,-134.25"/>
<text xml:space="preserve" text-anchor="middle" x="265.08" y="-120.75" font-family="Helvetica,sans-Serif" font-size="10.00">memory</text>
</a>
</g>
</g>
<!-- Node10&#45;&gt;Node16 -->
<g id="edge18_Node000010_Node000016" class="edge">
<title>Node10&#45;&gt;Node16</title>
<g id="a_edge18_Node000010_Node000016"><a xlink:title=" ">
<path fill="none" stroke="#63b8ff" d="M326.67,-169.84C315.79,-161.9 300.22,-150.53 287.46,-141.21"/>
<polygon fill="#63b8ff" stroke="#63b8ff" points="289.73,-138.54 279.59,-135.47 285.61,-144.19 289.73,-138.54"/>
</a>
</g>
</g>
<!-- Node17 -->
<g id="Node000017" class="node">
<title>Node17</title>
<g id="a_Node000017"><a xlink:title=" ">
<polygon fill="#e0e0e0" stroke="#999999" points="367.95,-134.25 312.2,-134.25 312.2,-113.5 367.95,-113.5 367.95,-134.25"/>
<text xml:space="preserve" text-anchor="middle" x="340.08" y="-120.75" font-family="Helvetica,sans-Serif" font-size="10.00">optional</text>
</a>
</g>
</g>
<!-- Node10&#45;&gt;Node17 -->
<g id="edge19_Node000010_Node000017" class="edge">
<title>Node10&#45;&gt;Node17</title>
<g id="a_edge19_Node000010_Node000017"><a xlink:title=" ">
<path fill="none" stroke="#63b8ff" d="M340.08,-169.84C340.08,-163.22 340.08,-154.22 340.08,-146.02"/>
<polygon fill="#63b8ff" stroke="#63b8ff" points="343.58,-146.09 340.08,-136.09 336.58,-146.09 343.58,-146.09"/>
</a>
</g>
</g>
<!-- Node18 -->
<g id="Node000018" class="node">
<title>Node18</title>
<g id="a_Node000018"><a xlink:title=" ">
<polygon fill="#e0e0e0" stroke="#999999" points="454.33,-134.25 385.83,-134.25 385.83,-113.5 454.33,-113.5 454.33,-134.25"/>
<text xml:space="preserve" text-anchor="middle" x="420.08" y="-120.75" font-family="Helvetica,sans-Serif" font-size="10.00">type_traits</text>
</a>
</g>
</g>
<!-- Node10&#45;&gt;Node18 -->
<g id="edge20_Node000010_Node000018" class="edge">
<title>Node10&#45;&gt;Node18</title>
<g id="a_edge20_Node000010_Node000018"><a xlink:title=" ">
<path fill="none" stroke="#63b8ff" d="M354.38,-169.84C366.1,-161.82 382.92,-150.31 396.6,-140.94"/>
<polygon fill="#63b8ff" stroke="#63b8ff" points="398.38,-143.97 404.65,-135.43 394.42,-138.19 398.38,-143.97"/>
</a>
</g>
</g>
<!-- Node11&#45;&gt;Node7 -->
<g id="edge13_Node000011_Node000007" class="edge">
<title>Node11&#45;&gt;Node7</title>
<g id="a_edge13_Node000011_Node000007"><a xlink:title=" ">
<path fill="none" stroke="#63b8ff" d="M512.69,-113.09C517.53,-105.92 524.26,-95.98 530.15,-87.26"/>
<polygon fill="#63b8ff" stroke="#63b8ff" points="532.97,-89.33 535.67,-79.08 527.17,-85.41 532.97,-89.33"/>
</a>
</g>
</g>
<!-- Node12 -->
<g id="Node000012" class="node">
<title>Node12</title>
<g id="a_Node000012"><a xlink:title=" ">
<polygon fill="#e0e0e0" stroke="#999999" points="498.58,-77.5 437.58,-77.5 437.58,-56.75 498.58,-56.75 498.58,-77.5"/>
<text xml:space="preserve" text-anchor="middle" x="468.08" y="-64" font-family="Helvetica,sans-Serif" font-size="10.00">stdbool.h</text>
</a>
</g>
</g>
<!-- Node11&#45;&gt;Node12 -->
<g id="edge12_Node000011_Node000012" class="edge">
<title>Node11&#45;&gt;Node12</title>
<g id="a_edge12_Node000011_Node000012"><a xlink:title=" ">
<path fill="none" stroke="#63b8ff" d="M499.28,-113.09C494.31,-105.92 487.41,-95.98 481.36,-87.26"/>
<polygon fill="#63b8ff" stroke="#63b8ff" points="484.25,-85.29 475.68,-79.07 478.5,-89.28 484.25,-85.29"/>
</a>
</g>
</g>
<!-- Node19&#45;&gt;Node7 -->
<g id="edge22_Node000019_Node000007" class="edge">
<title>Node19&#45;&gt;Node7</title>
<g id="a_edge22_Node000019_Node000007"><a xlink:title=" ">
<path fill="none" stroke="#63b8ff" d="M131.51,-226.54C75.6,-207.08 -33.46,-161.39 11.08,-113.5 46.98,-74.9 415.59,-85.51 505.13,-77.22"/>
<polygon fill="#63b8ff" stroke="#63b8ff" points="505.44,-80.71 514.94,-76 504.58,-73.76 505.44,-80.71"/>
</a>
</g>
</g>
</g>
</svg>
