<?xml version="1.0" encoding="UTF-8" standalone="no"?>
<!DOCTYPE svg PUBLIC "-//W3C//DTD SVG 1.1//EN"
 "http://www.w3.org/Graphics/SVG/1.1/DTD/svg11.dtd">
<!-- Generated by graphviz version 14.1.2 (0)
 -->
<!-- Title: include/okapi/api/units/QAngularSpeed.hpp Pages: 1 -->
<svg width="520pt" height="212pt"
 viewBox="0.00 0.00 520.00 212.00" xmlns="http://www.w3.org/2000/svg" xmlns:xlink="http://www.w3.org/1999/xlink">
<g id="graph0" class="graph" transform="scale(1 1) rotate(0) translate(4 207.75)">
<title>include/okapi/api/units/QAngularSpeed.hpp</title>
<!-- Node1 -->
<g id="Node000001" class="node">
<title>Node1</title>
<g id="a_Node000001"><a xlink:title=" ">
<polygon fill="#999999" stroke="#666666" points="251.79,-203.75 126.29,-203.75 126.29,-170.25 251.79,-170.25 251.79,-203.75"/>
<text xml:space="preserve" text-anchor="start" x="134.29" y="-190.25" font-family="Helvetica,sans-Serif" font-size="10.00">include/okapi/api/units</text>
<text xml:space="preserve" text-anchor="middle" x="189.04" y="-177.5" font-family="Helvetica,sans-Serif" font-size="10.00">/QAngularSpeed.hpp</text>
</a>
</g>
</g>
<!-- Node2 -->
<g id="Node000002" class="node">
<title>Node2</title>
<g id="a_Node000002"><a xlink:href="../../d8/d7a/QAngle_8hpp.html" target="_top" xlink:title=" ">
<polygon fill="white" stroke="#666666" points="512.29,-134.25 365.79,-134.25 365.79,-113.5 512.29,-113.5 512.29,-134.25"/>
<text xml:space="preserve" text-anchor="middle" x="439.04" y="-120.75" font-family="Helvetica,sans-Serif" font-size="10.00">okapi/api/units/QAngle.hpp</text>
</a>
</g>
</g>
<!-- Node1&#45;&gt;Node2 -->
<g id="edge1_Node000001_Node000002" class="edge">
<title>Node1&#45;&gt;Node2</title>
<g id="a_edge1_Node000001_Node000002"><a xlink:title=" ">
<path fill="none" stroke="#63b8ff" d="M252.12,-170.58C293.99,-160.34 348.25,-147.07 387.52,-137.47"/>
<polygon fill="#63b8ff" stroke="#63b8ff" points="388.33,-140.88 397.21,-135.1 386.66,-134.08 388.33,-140.88"/>
</a>
</g>
</g>
<!-- Node3 -->
<g id="Node000003" class="node">
<title>Node3</title>
<g id="a_Node000003"><a xlink:href="../../d0/d10/RQuantity_8hpp.html" target="_top" xlink:title=" ">
<polygon fill="white" stroke="#666666" points="355.29,-77.5 196.79,-77.5 196.79,-56.75 355.29,-56.75 355.29,-77.5"/>
<text xml:space="preserve" text-anchor="middle" x="276.04" y="-64" font-family="Helvetica,sans-Serif" font-size="10.00">okapi/api/units/RQuantity.hpp</text>
</a>
</g>
</g>
<!-- Node1&#45;&gt;Node3 -->
<g id="edge10_Node000001_Node000003" class="edge">
<title>Node1&#45;&gt;Node3</title>
<g id="a_edge10_Node000001_Node000003"><a xlink:title=" ">
<path fill="none" stroke="#63b8ff" d="M126.03,-181.42C60.66,-174.29 -27.32,-156.55 9.04,-113.5 31.45,-86.96 116.95,-75.94 185.24,-71.37"/>
<polygon fill="#63b8ff" stroke="#63b8ff" points="185.2,-74.87 194.96,-70.75 184.76,-67.89 185.2,-74.87"/>
</a>
</g>
</g>
<!-- Node6 -->
<g id="Node000006" class="node">
<title>Node6</title>
<g id="a_Node000006"><a xlink:href="../../d1/d81/QFrequency_8hpp.html" target="_top" xlink:title=" ">
<polygon fill="white" stroke="#666666" points="185.79,-134.25 18.29,-134.25 18.29,-113.5 185.79,-113.5 185.79,-134.25"/>
<text xml:space="preserve" text-anchor="middle" x="102.04" y="-120.75" font-family="Helvetica,sans-Serif" font-size="10.00">okapi/api/units/QFrequency.hpp</text>
</a>
</g>
</g>
<!-- Node1&#45;&gt;Node6 -->
<g id="edge6_Node000001_Node000006" class="edge">
<title>Node1&#45;&gt;Node6</title>
<g id="a_edge6_Node000001_Node000006"><a xlink:title=" ">
<path fill="none" stroke="#63b8ff" d="M166.18,-169.94C153.63,-161.12 138.09,-150.2 125.45,-141.32"/>
<polygon fill="#63b8ff" stroke="#63b8ff" points="127.48,-138.47 117.28,-135.59 123.45,-144.2 127.48,-138.47"/>
</a>
</g>
</g>
<!-- Node7 -->
<g id="Node000007" class="node">
<title>Node7</title>
<g id="a_Node000007"><a xlink:href="../../db/d1a/QTime_8hpp.html" target="_top" xlink:title=" ">
<polygon fill="white" stroke="#666666" points="347.79,-134.25 204.29,-134.25 204.29,-113.5 347.79,-113.5 347.79,-134.25"/>
<text xml:space="preserve" text-anchor="middle" x="276.04" y="-120.75" font-family="Helvetica,sans-Serif" font-size="10.00">okapi/api/units/QTime.hpp</text>
</a>
</g>
</g>
<!-- Node1&#45;&gt;Node7 -->
<g id="edge8_Node000001_Node000007" class="edge">
<title>Node1&#45;&gt;Node7</title>
<g id="a_edge8_Node000001_Node000007"><a xlink:title=" ">
<path fill="none" stroke="#63b8ff" d="M211.9,-169.94C224.45,-161.12 239.99,-150.2 252.63,-141.32"/>
<polygon fill="#63b8ff" stroke="#63b8ff" points="254.62,-144.2 260.79,-135.59 250.6,-138.47 254.62,-144.2"/>
</a>
</g>
</g>
<!-- Node2&#45;&gt;Node3 -->
<g id="edge2_Node000002_Node000003" class="edge">
<title>Node2&#45;&gt;Node3</title>
<g id="a_edge2_Node000002_Node000003"><a xlink:title=" ">
<path fill="none" stroke="#63b8ff" d="M409.9,-113.09C383.67,-104.28 344.9,-91.25 315.82,-81.49"/>
<polygon fill="#63b8ff" stroke="#63b8ff" points="317.23,-78.27 306.63,-78.4 315,-84.9 317.23,-78.27"/>
</a>
</g>
</g>
<!-- Node4 -->
<g id="Node000004" class="node">
<title>Node4</title>
<g id="a_Node000004"><a xlink:title=" ">
<polygon fill="#e0e0e0" stroke="#999999" points="383.41,-20.75 336.66,-20.75 336.66,0 383.41,0 383.41,-20.75"/>
<text xml:space="preserve" text-anchor="middle" x="360.04" y="-7.25" font-family="Helvetica,sans-Serif" font-size="10.00">cmath</text>
</a>
</g>
</g>
<!-- Node2&#45;&gt;Node4 -->
<g id="edge5_Node000002_Node000004" class="edge">
<title>Node2&#45;&gt;Node4</title>
<g id="a_edge5_Node000002_Node000004"><a xlink:title=" ">
<path fill="none" stroke="#63b8ff" d="M432.3,-113.37C419.31,-95.03 390.56,-54.45 373.5,-30.37"/>
<polygon fill="#63b8ff" stroke="#63b8ff" points="376.49,-28.55 367.86,-22.41 370.78,-32.59 376.49,-28.55"/>
</a>
</g>
</g>
<!-- Node3&#45;&gt;Node4 -->
<g id="edge3_Node000003_Node000004" class="edge">
<title>Node3&#45;&gt;Node4</title>
<g id="a_edge3_Node000003_Node000004"><a xlink:title=" ">
<path fill="none" stroke="#63b8ff" d="M291.05,-56.34C303.48,-48.24 321.36,-36.58 335.81,-27.17"/>
<polygon fill="#63b8ff" stroke="#63b8ff" points="337.41,-30.3 343.88,-21.9 333.59,-24.43 337.41,-30.3"/>
</a>
</g>
</g>
<!-- Node5 -->
<g id="Node000005" class="node">
<title>Node5</title>
<g id="a_Node000005"><a xlink:title=" ">
<polygon fill="#e0e0e0" stroke="#999999" points="295.29,-20.75 256.79,-20.75 256.79,0 295.29,0 295.29,-20.75"/>
<text xml:space="preserve" text-anchor="middle" x="276.04" y="-7.25" font-family="Helvetica,sans-Serif" font-size="10.00">ratio</text>
</a>
</g>
</g>
<!-- Node3&#45;&gt;Node5 -->
<g id="edge4_Node000003_Node000005" class="edge">
<title>Node3&#45;&gt;Node5</title>
<g id="a_edge4_Node000003_Node000005"><a xlink:title=" ">
<path fill="none" stroke="#63b8ff" d="M276.04,-56.34C276.04,-49.72 276.04,-40.72 276.04,-32.52"/>
<polygon fill="#63b8ff" stroke="#63b8ff" points="279.54,-32.59 276.04,-22.59 272.54,-32.59 279.54,-32.59"/>
</a>
</g>
</g>
<!-- Node6&#45;&gt;Node3 -->
<g id="edge7_Node000006_Node000003" class="edge">
<title>Node6&#45;&gt;Node3</title>
<g id="a_edge7_Node000006_Node000003"><a xlink:title=" ">
<path fill="none" stroke="#63b8ff" d="M133.14,-113.09C161.26,-104.24 202.89,-91.14 233.98,-81.36"/>
<polygon fill="#63b8ff" stroke="#63b8ff" points="234.97,-84.72 243.46,-78.37 232.87,-78.04 234.97,-84.72"/>
</a>
</g>
</g>
<!-- Node7&#45;&gt;Node3 -->
<g id="edge9_Node000007_Node000003" class="edge">
<title>Node7&#45;&gt;Node3</title>
<g id="a_edge9_Node000007_Node000003"><a xlink:title=" ">
<path fill="none" stroke="#63b8ff" d="M276.04,-113.09C276.04,-106.47 276.04,-97.47 276.04,-89.27"/>
<polygon fill="#63b8ff" stroke="#63b8ff" points="279.54,-89.34 276.04,-79.34 272.54,-89.34 279.54,-89.34"/>
</a>
</g>
</g>
</g>
</svg>
