<?xml version="1.0" encoding="UTF-8" standalone="no"?>
<!DOCTYPE svg PUBLIC "-//W3C//DTD SVG 1.1//EN"
 "http://www.w3.org/Graphics/SVG/1.1/DTD/svg11.dtd">
<!-- Generated by graphviz version 14.1.2 (0)
 -->
<!-- Title: _lv_bar_t Pages: 1 -->
<svg width="599pt" height="589pt"
 viewBox="0.00 0.00 599.00 589.00" xmlns="http://www.w3.org/2000/svg" xmlns:xlink="http://www.w3.org/1999/xlink">
<g id="graph0" class="graph" transform="scale(1 1) rotate(0) translate(4 584.75)">
<title>_lv_bar_t</title>
<!-- Node1 -->
<g id="Node000001" class="node">
<title>Node1</title>
<g id="a_Node000001"><a xlink:title=" ">
<polygon fill="#999999" stroke="#666666" points="60.25,-179.12 0,-179.12 0,-158.38 60.25,-158.38 60.25,-179.12"/>
<text xml:space="preserve" text-anchor="middle" x="30.12" y="-165.62" font-family="Helvetica,sans-Serif" font-size="10.00">_lv_bar_t</text>
</a>
</g>
</g>
<!-- Node2 -->
<g id="Node000002" class="node">
<title>Node2</title>
<g id="a_Node000002"><a xlink:href="../../d2/d48/struct__lv__obj__t.html" target="_top" xlink:title=" ">
<polygon fill="white" stroke="#666666" points="252.88,-278.75 193.38,-278.75 193.38,-258 252.88,-258 252.88,-278.75"/>
<text xml:space="preserve" text-anchor="middle" x="223.12" y="-265.25" font-family="Helvetica,sans-Serif" font-size="10.00">_lv_obj_t</text>
</a>
</g>
</g>
<!-- Node2&#45;&gt;Node1 -->
<g id="edge1_Node000001_Node000002" class="edge">
<title>Node2&#45;&gt;Node1</title>
<g id="a_edge1_Node000001_Node000002"><a xlink:title=" ">
<path fill="none" stroke="#9a32cd" stroke-dasharray="5,2" d="M181.79,-265.27C155,-262.38 120.18,-255.62 93.12,-240 66.74,-224.76 45.44,-194.58 35.76,-179.22"/>
<polygon fill="#9a32cd" stroke="#9a32cd" points="181.32,-268.74 191.6,-266.18 181.97,-261.77 181.32,-268.74"/>
</a>
</g>
<text xml:space="preserve" text-anchor="start" x="96.12" y="-219.12" font-family="Helvetica,sans-Serif" font-size="10.00" fill="grey">obj</text>
</g>
<!-- Node2&#45;&gt;Node2 -->
<g id="edge4_Node000002_Node000002" class="edge">
<title>Node2&#45;&gt;Node2</title>
<g id="a_edge4_Node000002_Node000002"><a xlink:title=" ">
<path fill="none" stroke="#9a32cd" stroke-dasharray="5,2" d="M264.38,-274.1C268.36,-272.94 270.88,-271.03 270.88,-268.38 270.88,-263.66 262.92,-261.3 252.97,-261.3"/>
<polygon fill="#9a32cd" stroke="#9a32cd" points="263.99,-270.62 254.47,-275.27 264.81,-277.57 263.99,-270.62"/>
</a>
</g>
<text xml:space="preserve" text-anchor="start" x="273.88" y="-265.25" font-family="Helvetica,sans-Serif" font-size="10.00" fill="grey">parent</text>
</g>
<!-- Node4 -->
<g id="Node000004" class="node">
<title>Node4</title>
<g id="a_Node000004"><a xlink:href="../../dd/dd6/struct__lv__obj__spec__attr__t.html" target="_top" xlink:title=" ">
<polygon fill="white" stroke="#666666" points="380,-20.75 270.25,-20.75 270.25,0 380,0 380,-20.75"/>
<text xml:space="preserve" text-anchor="middle" x="325.12" y="-7.25" font-family="Helvetica,sans-Serif" font-size="10.00">_lv_obj_spec_attr_t</text>
</a>
</g>
</g>
<!-- Node2&#45;&gt;Node4 -->
<g id="edge6_Node000004_Node000002" class="edge">
<title>Node2&#45;&gt;Node4</title>
<g id="a_edge6_Node000004_Node000002"><a xlink:title=" ">
<path fill="none" stroke="#9a32cd" stroke-dasharray="5,2" d="M220.31,-246.27C217.14,-215.81 214.63,-158.31 233.12,-114.25 250.37,-73.16 291.12,-37.47 312.12,-21.03"/>
<polygon fill="#9a32cd" stroke="#9a32cd" points="216.81,-246.54 221.46,-256.06 223.76,-245.72 216.81,-246.54"/>
</a>
</g>
<text xml:space="preserve" text-anchor="start" x="236.12" y="-120.5" font-family="Helvetica,sans-Serif" font-size="10.00" fill="grey">children</text>
</g>
<!-- Node5 -->
<g id="Node000005" class="node">
<title>Node5</title>
<g id="a_Node000005"><a xlink:href="../../da/d0a/struct__lv__group__t.html" target="_top" xlink:title=" ">
<polygon fill="white" stroke="#666666" points="394.25,-179.12 322,-179.12 322,-158.38 394.25,-158.38 394.25,-179.12"/>
<text xml:space="preserve" text-anchor="middle" x="358.12" y="-165.62" font-family="Helvetica,sans-Serif" font-size="10.00">_lv_group_t</text>
</a>
</g>
</g>
<!-- Node2&#45;&gt;Node5 -->
<g id="edge9_Node000005_Node000002" class="edge">
<title>Node2&#45;&gt;Node5</title>
<g id="a_edge9_Node000005_Node000002"><a xlink:title=" ">
<path fill="none" stroke="#9a32cd" stroke-dasharray="5,2" d="M264.17,-259.6C277.68,-255.49 292.06,-249.3 303.12,-240 316.9,-228.42 311.74,-218.84 322.62,-204.5 329.72,-195.16 339.29,-185.93 346.71,-179.34"/>
<polygon fill="#9a32cd" stroke="#9a32cd" points="263.32,-256.2 254.57,-262.18 265.14,-262.96 263.32,-256.2"/>
</a>
</g>
<text xml:space="preserve" text-anchor="start" x="325.62" y="-219.12" font-family="Helvetica,sans-Serif" font-size="10.00" fill="grey">obj_focus</text>
</g>
<!-- Node8 -->
<g id="Node000008" class="node">
<title>Node8</title>
<g id="a_Node000008"><a xlink:href="../../df/d21/struct__lv__event__t.html" target="_top" xlink:title=" ">
<polygon fill="white" stroke="#666666" points="150.25,-179.12 78,-179.12 78,-158.38 150.25,-158.38 150.25,-179.12"/>
<text xml:space="preserve" text-anchor="middle" x="114.12" y="-165.62" font-family="Helvetica,sans-Serif" font-size="10.00">_lv_event_t</text>
</a>
</g>
</g>
<!-- Node2&#45;&gt;Node8 -->
<g id="edge13_Node000008_Node000002" class="edge">
<title>Node2&#45;&gt;Node8</title>
<g id="a_edge13_Node000008_Node000002"><a xlink:title=" ">
<path fill="none" stroke="#9a32cd" stroke-dasharray="5,2" d="M181.84,-263C165.39,-259.29 147.47,-252.48 135.12,-240 118.74,-223.44 115.05,-194.66 114.28,-179.59"/>
<polygon fill="#9a32cd" stroke="#9a32cd" points="180.95,-266.39 191.42,-264.82 182.25,-259.51 180.95,-266.39"/>
</a>
</g>
<text xml:space="preserve" text-anchor="start" x="138.12" y="-227.5" font-family="Helvetica,sans-Serif" font-size="10.00" fill="grey">current_target</text>
<text xml:space="preserve" text-anchor="start" x="138.12" y="-210.75" font-family="Helvetica,sans-Serif" font-size="10.00" fill="grey">target</text>
</g>
<!-- Node3 -->
<g id="Node000003" class="node">
<title>Node3</title>
<g id="a_Node000003"><a xlink:href="../../d0/d4a/struct__lv__obj__class__t.html" target="_top" xlink:title=" ">
<polygon fill="white" stroke="#666666" points="177.88,-354.25 88.38,-354.25 88.38,-333.5 177.88,-333.5 177.88,-354.25"/>
<text xml:space="preserve" text-anchor="middle" x="133.12" y="-340.75" font-family="Helvetica,sans-Serif" font-size="10.00">_lv_obj_class_t</text>
</a>
</g>
</g>
<!-- Node3&#45;&gt;Node2 -->
<g id="edge2_Node000002_Node000003" class="edge">
<title>Node3&#45;&gt;Node2</title>
<g id="a_edge2_Node000002_Node000003"><a xlink:title=" ">
<path fill="none" stroke="#9a32cd" stroke-dasharray="5,2" d="M154.61,-326.26C159.1,-322.74 163.78,-319.02 168.12,-315.5 183.43,-303.11 200.79,-288.44 211.84,-279.03"/>
<polygon fill="#9a32cd" stroke="#9a32cd" points="152.77,-323.25 147.04,-332.16 157.07,-328.77 152.77,-323.25"/>
</a>
</g>
<text xml:space="preserve" text-anchor="start" x="192.44" y="-303" font-family="Helvetica,sans-Serif" font-size="10.00" fill="grey">class_p</text>
</g>
<!-- Node3&#45;&gt;Node3 -->
<g id="edge3_Node000003_Node000003" class="edge">
<title>Node3&#45;&gt;Node3</title>
<g id="a_edge3_Node000003_Node000003"><a xlink:title=" ">
<path fill="none" stroke="#9a32cd" stroke-dasharray="5,2" d="M189.32,-349.1C193.39,-347.92 195.88,-346.18 195.88,-343.88 195.88,-339.89 188.43,-337.59 178.25,-336.97"/>
<polygon fill="#9a32cd" stroke="#9a32cd" points="189.11,-345.59 179.75,-350.55 190.16,-352.51 189.11,-345.59"/>
</a>
</g>
<text xml:space="preserve" text-anchor="start" x="198.88" y="-340.75" font-family="Helvetica,sans-Serif" font-size="10.00" fill="grey">base_class</text>
</g>
<!-- Node4&#45;&gt;Node2 -->
<g id="edge5_Node000002_Node000004" class="edge">
<title>Node4&#45;&gt;Node2</title>
<g id="a_edge5_Node000002_Node000004"><a xlink:title=" ">
<path fill="none" stroke="#9a32cd" stroke-dasharray="5,2" d="M318.35,-31.99C304.79,-72.53 272.64,-165.22 238.12,-240 235.35,-246 231.82,-252.5 228.87,-257.66"/>
<polygon fill="#9a32cd" stroke="#9a32cd" points="321.64,-33.18 321.47,-22.59 315,-30.98 321.64,-33.18"/>
</a>
</g>
<text xml:space="preserve" text-anchor="start" x="292.27" y="-120.5" font-family="Helvetica,sans-Serif" font-size="10.00" fill="grey">spec_attr</text>
</g>
<!-- Node5&#45;&gt;Node4 -->
<g id="edge7_Node000004_Node000005" class="edge">
<title>Node5&#45;&gt;Node4</title>
<g id="a_edge7_Node000004_Node000005"><a xlink:title=" ">
<path fill="none" stroke="#9a32cd" stroke-dasharray="5,2" d="M353.75,-147C346.54,-112.87 332.47,-46.16 327.19,-21.15"/>
<polygon fill="#9a32cd" stroke="#9a32cd" points="350.26,-147.43 355.75,-156.49 357.11,-145.98 350.26,-147.43"/>
</a>
</g>
<text xml:space="preserve" text-anchor="start" x="345.72" y="-82.75" font-family="Helvetica,sans-Serif" font-size="10.00" fill="grey">group_p</text>
</g>
<!-- Node5&#45;&gt;Node5 -->
<g id="edge10_Node000005_Node000005" class="edge">
<title>Node5&#45;&gt;Node5</title>
<g id="a_edge10_Node000005_Node000005"><a xlink:title=" ">
<path fill="none" stroke="#9a32cd" stroke-dasharray="5,2" d="M405.59,-175.37C409.69,-173.96 412.25,-171.76 412.25,-168.75 412.25,-163.55 404.58,-160.75 394.55,-160.34"/>
<polygon fill="#9a32cd" stroke="#9a32cd" points="405.35,-171.86 396.05,-176.92 406.48,-178.77 405.35,-171.86"/>
</a>
</g>
<text xml:space="preserve" text-anchor="start" x="415.25" y="-174" font-family="Helvetica,sans-Serif" font-size="10.00" fill="grey">edge_cb</text>
<text xml:space="preserve" text-anchor="start" x="415.25" y="-157.25" font-family="Helvetica,sans-Serif" font-size="10.00" fill="grey">focus_cb</text>
</g>
<!-- Node6 -->
<g id="Node000006" class="node">
<title>Node6</title>
<g id="a_Node000006"><a xlink:href="../../da/d89/structlv__ll__t.html" target="_top" xlink:title=" ">
<polygon fill="white" stroke="#666666" points="423.75,-278.75 378.5,-278.75 378.5,-258 423.75,-258 423.75,-278.75"/>
<text xml:space="preserve" text-anchor="middle" x="401.12" y="-265.25" font-family="Helvetica,sans-Serif" font-size="10.00">lv_ll_t</text>
</a>
</g>
</g>
<!-- Node6&#45;&gt;Node5 -->
<g id="edge8_Node000005_Node000006" class="edge">
<title>Node6&#45;&gt;Node5</title>
<g id="a_edge8_Node000005_Node000006"><a xlink:title=" ">
<path fill="none" stroke="#9a32cd" stroke-dasharray="5,2" d="M395.21,-247.09C391.26,-234.56 385.62,-218.3 379.12,-204.5 374.98,-195.7 369.2,-186.29 364.76,-179.48"/>
<polygon fill="#9a32cd" stroke="#9a32cd" points="391.75,-247.75 398,-256.31 398.45,-245.72 391.75,-247.75"/>
</a>
</g>
<text xml:space="preserve" text-anchor="start" x="395.85" y="-219.12" font-family="Helvetica,sans-Serif" font-size="10.00" fill="grey">obj_ll</text>
</g>
<!-- Node7 -->
<g id="Node000007" class="node">
<title>Node7</title>
<g id="a_Node000007"><a xlink:href="../../d6/dce/struct__lv__event__dsc__t.html" target="_top" xlink:title=" ">
<polygon fill="white" stroke="#666666" points="187.12,-96.25 93.12,-96.25 93.12,-75.5 187.12,-75.5 187.12,-96.25"/>
<text xml:space="preserve" text-anchor="middle" x="140.12" y="-82.75" font-family="Helvetica,sans-Serif" font-size="10.00">_lv_event_dsc_t</text>
</a>
</g>
</g>
<!-- Node7&#45;&gt;Node4 -->
<g id="edge11_Node000004_Node000007" class="edge">
<title>Node7&#45;&gt;Node4</title>
<g id="a_edge11_Node000004_Node000007"><a xlink:title=" ">
<path fill="none" stroke="#9a32cd" stroke-dasharray="5,2" d="M141.87,-63.85C143.71,-54.86 147.38,-45.01 154.62,-38.75 171.58,-24.1 226.88,-17.22 269.96,-14.04"/>
<polygon fill="#9a32cd" stroke="#9a32cd" points="138.42,-63.28 140.54,-73.66 145.35,-64.22 138.42,-63.28"/>
</a>
</g>
<text xml:space="preserve" text-anchor="start" x="157.62" y="-45" font-family="Helvetica,sans-Serif" font-size="10.00" fill="grey">event_dsc</text>
</g>
<!-- Node8&#45;&gt;Node7 -->
<g id="edge12_Node000007_Node000008" class="edge">
<title>Node8&#45;&gt;Node7</title>
<g id="a_edge12_Node000007_Node000008"><a xlink:title=" ">
<path fill="none" stroke="#9a32cd" stroke-dasharray="5,2" d="M120.62,-147.54C125.87,-131.22 133.02,-108.98 137.04,-96.46"/>
<polygon fill="#9a32cd" stroke="#9a32cd" points="117.4,-146.12 117.67,-156.71 124.07,-148.27 117.4,-146.12"/>
</a>
</g>
<text xml:space="preserve" text-anchor="start" x="133.97" y="-120.5" font-family="Helvetica,sans-Serif" font-size="10.00" fill="grey">cb</text>
</g>
<!-- Node8&#45;&gt;Node8 -->
<g id="edge14_Node000008_Node000008" class="edge">
<title>Node8&#45;&gt;Node8</title>
<g id="a_edge14_Node000008_Node000008"><a xlink:title=" ">
<path fill="none" stroke="#9a32cd" stroke-dasharray="5,2" d="M161.59,-175.37C165.69,-173.96 168.25,-171.76 168.25,-168.75 168.25,-163.55 160.58,-160.75 150.55,-160.34"/>
<polygon fill="#9a32cd" stroke="#9a32cd" points="161.35,-171.86 152.05,-176.92 162.48,-178.77 161.35,-171.86"/>
</a>
</g>
<text xml:space="preserve" text-anchor="start" x="171.25" y="-165.62" font-family="Helvetica,sans-Serif" font-size="10.00" fill="grey">prev</text>
</g>
<!-- Node9 -->
<g id="Node000009" class="node">
<title>Node9</title>
<g id="a_Node000009"><a xlink:href="../../dc/db7/structlv__point__t.html" target="_top" xlink:title=" ">
<polygon fill="white" stroke="#666666" points="485.12,-96.25 421.12,-96.25 421.12,-75.5 485.12,-75.5 485.12,-96.25"/>
<text xml:space="preserve" text-anchor="middle" x="453.12" y="-82.75" font-family="Helvetica,sans-Serif" font-size="10.00">lv_point_t</text>
</a>
</g>
</g>
<!-- Node9&#45;&gt;Node4 -->
<g id="edge15_Node000004_Node000009" class="edge">
<title>Node9&#45;&gt;Node4</title>
<g id="a_edge15_Node000004_Node000009"><a xlink:title=" ">
<path fill="none" stroke="#9a32cd" stroke-dasharray="5,2" d="M426.41,-69.53C401.06,-54.98 363.74,-33.55 342.19,-21.18"/>
<polygon fill="#9a32cd" stroke="#9a32cd" points="424.4,-72.42 434.82,-74.36 427.89,-66.35 424.4,-72.42"/>
</a>
</g>
<text xml:space="preserve" text-anchor="start" x="407.35" y="-45" font-family="Helvetica,sans-Serif" font-size="10.00" fill="grey">scroll</text>
</g>
<!-- Node10 -->
<g id="Node000010" class="node">
<title>Node10</title>
<g id="a_Node000010"><a xlink:href="../../d2/d59/structlv__event__list__t.html" target="_top" xlink:title=" ">
<polygon fill="white" stroke="#666666" points="590.75,-96.25 503.5,-96.25 503.5,-75.5 590.75,-75.5 590.75,-96.25"/>
<text xml:space="preserve" text-anchor="middle" x="547.12" y="-82.75" font-family="Helvetica,sans-Serif" font-size="10.00">lv_event_list_t</text>
</a>
</g>
</g>
<!-- Node10&#45;&gt;Node4 -->
<g id="edge16_Node000004_Node000010" class="edge">
<title>Node10&#45;&gt;Node4</title>
<g id="a_edge16_Node000004_Node000010"><a xlink:title=" ">
<path fill="none" stroke="#9a32cd" stroke-dasharray="5,2" d="M517.14,-70.28C495.98,-60.41 466.78,-47.59 440.12,-38.75 419.09,-31.77 395.33,-25.81 374.9,-21.25"/>
<polygon fill="#9a32cd" stroke="#9a32cd" points="515.51,-73.39 526.04,-74.5 518.5,-67.06 515.51,-73.39"/>
</a>
</g>
<text xml:space="preserve" text-anchor="start" x="490.8" y="-45" font-family="Helvetica,sans-Serif" font-size="10.00" fill="grey">event_list</text>
</g>
<!-- Node11 -->
<g id="Node000011" class="node">
<title>Node11</title>
<g id="a_Node000011"><a xlink:href="../../de/de7/struct__lv__obj__style__t.html" target="_top" xlink:title=" ">
<polygon fill="white" stroke="#666666" points="361.5,-354.25 272.75,-354.25 272.75,-333.5 361.5,-333.5 361.5,-354.25"/>
<text xml:space="preserve" text-anchor="middle" x="317.12" y="-340.75" font-family="Helvetica,sans-Serif" font-size="10.00">_lv_obj_style_t</text>
</a>
</g>
</g>
<!-- Node11&#45;&gt;Node2 -->
<g id="edge17_Node000002_Node000011" class="edge">
<title>Node11&#45;&gt;Node2</title>
<g id="a_edge17_Node000002_Node000011"><a xlink:title=" ">
<path fill="none" stroke="#9a32cd" stroke-dasharray="5,2" d="M295.95,-326.32C277.42,-311.83 251.12,-291.26 235.72,-279.22"/>
<polygon fill="#9a32cd" stroke="#9a32cd" points="293.61,-328.93 303.64,-332.33 297.92,-323.42 293.61,-328.93"/>
</a>
</g>
<text xml:space="preserve" text-anchor="start" x="284.31" y="-303" font-family="Helvetica,sans-Serif" font-size="10.00" fill="grey">styles</text>
</g>
<!-- Node12 -->
<g id="Node000012" class="node">
<title>Node12</title>
<g id="a_Node000012"><a xlink:href="../../d7/d43/structlv__style__t.html" target="_top" xlink:title=" ">
<polygon fill="white" stroke="#666666" points="348.75,-429.75 285.5,-429.75 285.5,-409 348.75,-409 348.75,-429.75"/>
<text xml:space="preserve" text-anchor="middle" x="317.12" y="-416.25" font-family="Helvetica,sans-Serif" font-size="10.00">lv_style_t</text>
</a>
</g>
</g>
<!-- Node12&#45;&gt;Node11 -->
<g id="edge18_Node000011_Node000012" class="edge">
<title>Node12&#45;&gt;Node11</title>
<g id="a_edge18_Node000011_Node000012"><a xlink:title=" ">
<path fill="none" stroke="#9a32cd" stroke-dasharray="5,2" d="M317.12,-397.26C317.12,-383.26 317.12,-365.55 317.12,-354.72"/>
<polygon fill="#9a32cd" stroke="#9a32cd" points="313.63,-397.25 317.13,-407.25 320.63,-397.25 313.63,-397.25"/>
</a>
</g>
<text xml:space="preserve" text-anchor="start" x="320.12" y="-378.5" font-family="Helvetica,sans-Serif" font-size="10.00" fill="grey">style</text>
</g>
<!-- Node13 -->
<g id="Node000013" class="node">
<title>Node13</title>
<g id="a_Node000013"><a xlink:href="../../d2/da1/unionlv__style__value__t.html" target="_top" xlink:title=" ">
<polygon fill="white" stroke="#666666" points="364.88,-580.75 269.38,-580.75 269.38,-560 364.88,-560 364.88,-580.75"/>
<text xml:space="preserve" text-anchor="middle" x="317.12" y="-567.25" font-family="Helvetica,sans-Serif" font-size="10.00">lv_style_value_t</text>
</a>
</g>
</g>
<!-- Node13&#45;&gt;Node12 -->
<g id="edge19_Node000012_Node000013" class="edge">
<title>Node13&#45;&gt;Node12</title>
<g id="a_edge19_Node000012_Node000013"><a xlink:title=" ">
<path fill="none" stroke="#9a32cd" stroke-dasharray="5,2" d="M314.3,-548.77C312.72,-536.22 310.92,-519.84 310.12,-505.25 308.63,-477.79 313,-445.43 315.51,-429.78"/>
<polygon fill="#9a32cd" stroke="#9a32cd" points="310.78,-548.88 315.56,-558.34 317.72,-547.97 310.78,-548.88"/>
</a>
</g>
<text xml:space="preserve" text-anchor="start" x="313.12" y="-491.75" font-family="Helvetica,sans-Serif" font-size="10.00" fill="grey">value1</text>
</g>
<!-- Node14 -->
<g id="Node000014" class="node">
<title>Node14</title>
<g id="a_Node000014"><a xlink:href="../../da/db9/structlv__style__const__prop__t.html" target="_top" xlink:title=" ">
<polygon fill="white" stroke="#666666" points="480,-505.25 358.25,-505.25 358.25,-484.5 480,-484.5 480,-505.25"/>
<text xml:space="preserve" text-anchor="middle" x="419.12" y="-491.75" font-family="Helvetica,sans-Serif" font-size="10.00">lv_style_const_prop_t</text>
</a>
</g>
</g>
<!-- Node13&#45;&gt;Node14 -->
<g id="edge21_Node000014_Node000013" class="edge">
<title>Node13&#45;&gt;Node14</title>
<g id="a_edge21_Node000014_Node000013"><a xlink:title=" ">
<path fill="none" stroke="#9a32cd" stroke-dasharray="5,2" d="M339.55,-553.22C359.68,-538.71 388.6,-517.87 405.46,-505.72"/>
<polygon fill="#9a32cd" stroke="#9a32cd" points="337.75,-550.2 331.69,-558.88 341.85,-555.87 337.75,-550.2"/>
</a>
</g>
<text xml:space="preserve" text-anchor="start" x="383.26" y="-529.5" font-family="Helvetica,sans-Serif" font-size="10.00" fill="grey">value</text>
</g>
<!-- Node14&#45;&gt;Node12 -->
<g id="edge20_Node000012_Node000014" class="edge">
<title>Node14&#45;&gt;Node12</title>
<g id="a_edge20_Node000012_Node000014"><a xlink:title=" ">
<path fill="none" stroke="#9a32cd" stroke-dasharray="5,2" d="M396.7,-477.72C376.57,-463.21 347.65,-442.37 330.79,-430.22"/>
<polygon fill="#9a32cd" stroke="#9a32cd" points="394.4,-480.37 404.56,-483.38 398.5,-474.7 394.4,-480.37"/>
</a>
</g>
<text xml:space="preserve" text-anchor="start" x="383.26" y="-454" font-family="Helvetica,sans-Serif" font-size="10.00" fill="grey">const_props</text>
</g>
<!-- Node15 -->
<g id="Node000015" class="node">
<title>Node15</title>
<g id="a_Node000015"><a xlink:href="../../df/d82/structlv__area__t.html" target="_top" xlink:title=" ">
<polygon fill="white" stroke="#666666" points="68.62,-354.25 7.62,-354.25 7.62,-333.5 68.62,-333.5 68.62,-354.25"/>
<text xml:space="preserve" text-anchor="middle" x="38.12" y="-340.75" font-family="Helvetica,sans-Serif" font-size="10.00">lv_area_t</text>
</a>
</g>
</g>
<!-- Node15&#45;&gt;Node1 -->
<g id="edge23_Node000001_Node000015" class="edge">
<title>Node15&#45;&gt;Node1</title>
<g id="a_edge23_Node000001_Node000015"><a xlink:title=" ">
<path fill="none" stroke="#9a32cd" stroke-dasharray="5,2" d="M37.16,-321.99C35.42,-284.39 31.83,-206.69 30.57,-179.45"/>
<polygon fill="#9a32cd" stroke="#9a32cd" points="33.64,-321.73 37.6,-331.56 40.64,-321.41 33.64,-321.73"/>
</a>
</g>
<text xml:space="preserve" text-anchor="start" x="38.05" y="-265.25" font-family="Helvetica,sans-Serif" font-size="10.00" fill="grey">indic_area</text>
</g>
<!-- Node15&#45;&gt;Node2 -->
<g id="edge22_Node000002_Node000015" class="edge">
<title>Node15&#45;&gt;Node2</title>
<g id="a_edge22_Node000002_Node000015"><a xlink:title=" ">
<path fill="none" stroke="#9a32cd" stroke-dasharray="5,2" d="M63.94,-327.46C81.07,-317.7 104.29,-305.35 125.88,-296.75 147.87,-287.99 173.71,-280.85 193.23,-276.07"/>
<polygon fill="#9a32cd" stroke="#9a32cd" points="62.34,-324.35 55.44,-332.39 65.85,-330.4 62.34,-324.35"/>
</a>
</g>
<text xml:space="preserve" text-anchor="start" x="128.88" y="-303" font-family="Helvetica,sans-Serif" font-size="10.00" fill="grey">coords</text>
</g>
</g>
</svg>
