<?xml version="1.0" encoding="UTF-8" standalone="no"?>
<!DOCTYPE svg PUBLIC "-//W3C//DTD SVG 1.1//EN"
 "http://www.w3.org/Graphics/SVG/1.1/DTD/svg11.dtd">
<!-- Generated by graphviz version 14.1.2 (0)
 -->
<!-- Title: okapi::ReadOnlyChassisModel Pages: 1 -->
<svg width="437pt" height="212pt"
 viewBox="0.00 0.00 437.00 212.00" xmlns="http://www.w3.org/2000/svg" xmlns:xlink="http://www.w3.org/1999/xlink">

<svg id="main" version="1.1" xmlns="http://www.w3.org/2000/svg" xmlns:xlink="http://www.w3.org/1999/xlink" xml:space="preserve">

<style type="text/css"><![CDATA[
.node, .edge {opacity: 0.7;}
.node.selected, .edge.selected {opacity: 1;}
.edge:hover path { stroke: red; }
.edge:hover polygon { stroke: red; fill: red; }
]]></style>
<script type="application/ecmascript" xlink:href="../../svg.min.js"/>
<svg id="graph" class="graph">
<g id="graph0" class="graph" transform="scale(1 1) rotate(0) translate(4 207.75)">
<title>okapi::ReadOnlyChassisModel</title>
<!-- Node1 -->
<g id="Node000001" class="node">
<title>Node1</title>
<g id="a_Node000001"><a xlink:title=" ">
<polygon fill="#999999" stroke="#666666" points="273.5,-203.75 110.5,-203.75 110.5,-183 273.5,-183 273.5,-203.75"/>
<text xml:space="preserve" text-anchor="middle" x="192" y="-190.25" font-family="Helvetica,sans-Serif" font-size="10.00">okapi::ReadOnlyChassisModel</text>
</a>
</g>
</g>
<!-- Node2 -->
<g id="Node000002" class="node">
<title>Node2</title>
<g id="a_Node000002"><a xlink:href="../../d4/d14/classokapi_1_1ChassisModel.html" target="_top" xlink:title=" ">
<polygon fill="white" stroke="#666666" points="249.88,-147 134.12,-147 134.12,-126.25 249.88,-126.25 249.88,-147"/>
<text xml:space="preserve" text-anchor="middle" x="192" y="-133.5" font-family="Helvetica,sans-Serif" font-size="10.00">okapi::ChassisModel</text>
</a>
</g>
</g>
<!-- Node1&#45;&gt;Node2 -->
<g id="edge1_Node000001_Node000002" class="edge">
<title>Node1&#45;&gt;Node2</title>
<g id="a_edge1_Node000001_Node000002"><a xlink:title=" ">
<path fill="none" stroke="#63b8ff" d="M192,-171.13C192,-162.91 192,-153.93 192,-147.33"/>
<polygon fill="#63b8ff" stroke="#63b8ff" points="188.5,-171.07 192,-181.07 195.5,-171.07 188.5,-171.07"/>
</a>
</g>
</g>
<!-- Node3 -->
<g id="Node000003" class="node">
<title>Node3</title>
<g id="a_Node000003"><a xlink:href="../../d4/d53/classokapi_1_1HDriveModel.html" target="_top" xlink:title=" ">
<polygon fill="white" stroke="#666666" points="112,-90.25 0,-90.25 0,-69.5 112,-69.5 112,-90.25"/>
<text xml:space="preserve" text-anchor="middle" x="56" y="-76.75" font-family="Helvetica,sans-Serif" font-size="10.00">okapi::HDriveModel</text>
</a>
</g>
</g>
<!-- Node2&#45;&gt;Node3 -->
<g id="edge2_Node000002_Node000003" class="edge">
<title>Node2&#45;&gt;Node3</title>
<g id="a_edge2_Node000002_Node000003"><a xlink:title=" ">
<path fill="none" stroke="#63b8ff" d="M157.18,-121.61C133.04,-111.89 101.5,-99.19 80.1,-90.58"/>
<polygon fill="#63b8ff" stroke="#63b8ff" points="155.7,-124.78 166.28,-125.27 158.31,-118.29 155.7,-124.78"/>
</a>
</g>
</g>
<!-- Node4 -->
<g id="Node000004" class="node">
<title>Node4</title>
<g id="a_Node000004"><a xlink:href="../../d7/dc4/classokapi_1_1SkidSteerModel.html" target="_top" xlink:title=" ">
<polygon fill="white" stroke="#666666" points="254.38,-90.25 129.62,-90.25 129.62,-69.5 254.38,-69.5 254.38,-90.25"/>
<text xml:space="preserve" text-anchor="middle" x="192" y="-76.75" font-family="Helvetica,sans-Serif" font-size="10.00">okapi::SkidSteerModel</text>
</a>
</g>
</g>
<!-- Node2&#45;&gt;Node4 -->
<g id="edge3_Node000002_Node000004" class="edge">
<title>Node2&#45;&gt;Node4</title>
<g id="a_edge3_Node000002_Node000004"><a xlink:title=" ">
<path fill="none" stroke="#63b8ff" d="M192,-114.38C192,-106.16 192,-97.18 192,-90.58"/>
<polygon fill="#63b8ff" stroke="#63b8ff" points="188.5,-114.32 192,-124.32 195.5,-114.32 188.5,-114.32"/>
</a>
</g>
</g>
<!-- Node6 -->
<g id="Node000006" class="node">
<title>Node6</title>
<g id="a_Node000006"><a xlink:href="../../d3/d5a/classokapi_1_1XDriveModel.html" target="_top" xlink:title=" ">
<polygon fill="white" stroke="#666666" points="401.62,-90.25 290.38,-90.25 290.38,-69.5 401.62,-69.5 401.62,-90.25"/>
<text xml:space="preserve" text-anchor="middle" x="346" y="-76.75" font-family="Helvetica,sans-Serif" font-size="10.00">okapi::XDriveModel</text>
</a>
</g>
</g>
<!-- Node2&#45;&gt;Node6 -->
<g id="edge5_Node000002_Node000006" class="edge">
<title>Node2&#45;&gt;Node6</title>
<g id="a_edge5_Node000002_Node000006"><a xlink:title=" ">
<path fill="none" stroke="#63b8ff" d="M230.29,-122.01C257.67,-112.28 293.88,-99.4 318.45,-90.67"/>
<polygon fill="#63b8ff" stroke="#63b8ff" points="229.21,-118.68 220.96,-125.33 231.55,-125.28 229.21,-118.68"/>
</a>
</g>
</g>
<!-- Node5 -->
<g id="Node000005" class="node">
<title>Node5</title>
<g id="a_Node000005"><a xlink:href="../../d2/dd9/classokapi_1_1ThreeEncoderSkidSteerModel.html" target="_top" xlink:title=" ">
<polygon fill="white" stroke="#666666" points="262.75,-33.5 101.25,-33.5 101.25,0 262.75,0 262.75,-33.5"/>
<text xml:space="preserve" text-anchor="start" x="109.25" y="-20" font-family="Helvetica,sans-Serif" font-size="10.00">okapi::ThreeEncoderSkidSteer</text>
<text xml:space="preserve" text-anchor="middle" x="182" y="-7.25" font-family="Helvetica,sans-Serif" font-size="10.00">Model</text>
</a>
</g>
</g>
<!-- Node4&#45;&gt;Node5 -->
<g id="edge4_Node000004_Node000005" class="edge">
<title>Node4&#45;&gt;Node5</title>
<g id="a_edge4_Node000004_Node000005"><a xlink:title=" ">
<path fill="none" stroke="#63b8ff" d="M188.56,-57.87C187.29,-50.05 185.85,-41.31 184.66,-33.98"/>
<polygon fill="#63b8ff" stroke="#63b8ff" points="185.08,-58.26 190.15,-67.56 191.99,-57.13 185.08,-58.26"/>
</a>
</g>
</g>
<!-- Node7 -->
<g id="Node000007" class="node">
<title>Node7</title>
<g id="a_Node000007"><a xlink:href="../../d0/d3b/classokapi_1_1ThreeEncoderXDriveModel.html" target="_top" xlink:title=" ">
<polygon fill="white" stroke="#666666" points="429,-33.5 281,-33.5 281,0 429,0 429,-33.5"/>
<text xml:space="preserve" text-anchor="start" x="289" y="-20" font-family="Helvetica,sans-Serif" font-size="10.00">okapi::ThreeEncoderXDrive</text>
<text xml:space="preserve" text-anchor="middle" x="355" y="-7.25" font-family="Helvetica,sans-Serif" font-size="10.00">Model</text>
</a>
</g>
</g>
<!-- Node6&#45;&gt;Node7 -->
<g id="edge6_Node000006_Node000007" class="edge">
<title>Node6&#45;&gt;Node7</title>
<g id="a_edge6_Node000006_Node000007"><a xlink:title=" ">
<path fill="none" stroke="#63b8ff" d="M349.09,-57.87C350.24,-50.05 351.53,-41.31 352.61,-33.98"/>
<polygon fill="#63b8ff" stroke="#63b8ff" points="345.66,-57.15 347.67,-67.56 352.59,-58.17 345.66,-57.15"/>
</a>
</g>
</g>
</g>
</svg>
</svg>

<style type='text/css'>
<![CDATA[
[data-mouse-over-selected='false'] { opacity: 0.7; }
[data-mouse-over-selected='true']  { opacity: 1.0; }
]]>
</style>
<script type="application/ecmascript"><![CDATA[
document.addEventListener('DOMContentLoaded', (event) => {
  highlightEdges();
  highlightAdjacentNodes();
});
]]></script>
</svg>
